<?xml version="1.0" standalone="no"?>
<!DOCTYPE svg PUBLIC "-//W3C//DTD SVG 20010904//EN"
 "http://www.w3.org/TR/2001/REC-SVG-20010904/DTD/svg10.dtd">
<svg version="1.0" xmlns="http://www.w3.org/2000/svg"
 width="1200.000000pt" height="1200.000000pt" viewBox="0 0 1200.000000 1200.000000"
 preserveAspectRatio="xMidYMid meet">
<metadata>
Created by potrace 1.11, written by Peter Selinger 2001-2013
</metadata>
<g transform="translate(0.000000,1200.000000) scale(0.100000,-0.100000)"
fill="#000000" stroke="none">
<path d="M5748 11335 c-2 -1 -50 -6 -108 -9 -153 -10 -194 -14 -231 -20 -19
-3 -59 -8 -89 -11 -30 -3 -66 -8 -80 -10 -14 -2 -43 -6 -65 -10 -23 -3 -52 -8
-65 -10 -14 -3 -65 -12 -114 -21 -49 -8 -137 -27 -195 -40 -58 -14 -113 -27
-121 -29 -8 -2 -78 -21 -155 -44 -416 -119 -810 -286 -1187 -502 -117 -67
-432 -271 -456 -296 -8 -7 -23 -18 -35 -25 -12 -6 -42 -28 -67 -48 -25 -20
-72 -57 -105 -83 -276 -217 -616 -553 -820 -812 -22 -27 -42 -52 -45 -55 -3
-3 -18 -23 -35 -45 -16 -22 -32 -42 -35 -45 -33 -28 -257 -367 -369 -559 -62
-107 -244 -461 -249 -484 -1 -4 -11 -29 -23 -55 -88 -195 -252 -681 -284 -839
-2 -10 -11 -49 -20 -88 -21 -88 -23 -100 -31 -149 -3 -22 -7 -43 -9 -46 -1 -3
-6 -27 -9 -54 -4 -27 -9 -52 -11 -56 -2 -3 -6 -27 -9 -53 -3 -26 -8 -57 -10
-69 -3 -13 -8 -48 -11 -78 -3 -30 -8 -68 -10 -85 -6 -32 -10 -82 -22 -240 -10
-133 -10 -593 0 -729 12 -153 16 -207 22 -241 2 -16 7 -55 11 -85 6 -58 49
-316 63 -385 76 -360 210 -785 331 -1050 72 -157 198 -409 250 -501 35 -60 69
-118 75 -129 24 -45 203 -316 214 -325 3 -3 21 -27 40 -55 38 -55 191 -253
232 -300 202 -232 416 -449 598 -605 35 -30 69 -60 75 -65 26 -25 240 -188
334 -255 56 -40 102 -76 102 -80 0 -3 6 -7 13 -7 7 0 57 -29 112 -65 55 -35
138 -86 185 -113 47 -26 88 -52 91 -57 3 -6 8 -9 10 -8 11 6 157 -75 152 -83
-3 -6 -1 -7 6 -3 6 4 28 -2 48 -14 19 -11 63 -32 97 -47 33 -14 94 -41 134
-59 41 -19 75 -34 77 -34 1 0 20 -8 41 -17 22 -9 41 -17 44 -18 8 -3 41 -16
85 -35 22 -9 54 -20 70 -25 38 -10 35 -10 65 -22 14 -6 40 -14 58 -18 19 -4
30 -11 26 -17 -4 -7 -2 -8 4 -4 6 4 39 -3 74 -14 35 -11 75 -22 88 -25 14 -3
26 -9 28 -15 2 -6 8 -8 13 -4 5 3 40 -4 77 -15 37 -11 82 -23 101 -26 19 -3
37 -8 41 -10 4 -2 22 -7 41 -10 19 -3 50 -10 69 -15 46 -12 85 -19 140 -27 25
-3 47 -9 48 -14 2 -5 8 -7 13 -4 5 4 35 1 66 -5 32 -6 81 -14 108 -16 28 -3
57 -7 65 -10 8 -3 46 -8 84 -10 39 -2 73 -9 77 -15 5 -8 8 -8 13 0 4 6 11 9
16 6 26 -16 607 -34 631 -20 5 4 9 1 9 -5 0 -6 5 -8 12 -4 6 4 56 9 111 10 55
2 102 6 105 8 3 3 12 0 20 -7 11 -8 13 -8 9 0 -5 8 11 12 55 13 133 4 148 5
148 11 0 3 6 6 13 6 23 1 142 13 162 17 92 17 107 18 101 5 -4 -8 -1 -6 7 3 8
10 35 19 67 23 30 4 57 8 60 10 3 2 25 6 49 10 24 3 55 11 70 16 14 6 27 10
29 9 1 -1 15 1 30 4 15 4 36 8 47 10 58 12 158 38 180 46 14 5 36 12 48 14 48
10 68 16 232 72 94 31 182 63 197 70 15 8 30 14 33 14 6 1 31 9 74 26 18 8 38
11 45 7 6 -3 8 -2 3 2 -9 11 121 67 136 58 5 -3 7 -2 4 4 -8 12 69 47 84 37 7
-4 9 -3 6 3 -8 12 61 46 75 37 6 -4 8 -2 4 4 -3 6 8 15 28 22 19 6 36 14 38
18 2 4 35 23 73 42 39 19 92 47 118 62 27 16 53 25 59 22 7 -4 8 -2 4 5 -5 7
3 16 21 24 28 12 53 27 125 75 21 13 42 21 49 16 7 -4 10 -3 6 3 -7 10 10 31
26 32 4 0 22 12 41 26 18 14 38 25 44 25 6 0 12 4 14 8 2 5 35 30 73 57 39 26
81 56 94 66 13 10 27 16 32 13 5 -3 8 -1 7 4 -3 9 54 62 66 62 3 0 14 8 24 17
10 10 35 32 57 48 21 17 46 37 55 45 9 8 61 54 115 101 194 167 475 459 616
639 24 30 46 57 49 60 3 3 25 32 50 65 25 33 49 64 53 70 78 99 221 317 320
485 56 96 268 505 265 513 0 1 8 22 20 47 75 167 212 554 246 700 2 8 11 40
20 71 9 31 18 65 20 75 3 11 16 71 30 134 22 99 40 195 61 315 2 17 7 55 11
85 3 30 8 62 9 70 5 25 17 125 20 167 16 192 19 283 19 513 0 271 -7 430 -29
610 -9 78 -25 196 -29 216 -2 10 -9 53 -16 94 -14 82 -26 145 -60 290 -12 52
-23 102 -25 110 -39 178 -184 598 -287 835 -23 51 -201 408 -218 435 -30 49
-90 153 -90 156 0 9 -186 289 -255 384 -62 86 -210 278 -224 290 -3 3 -33 37
-66 75 -144 169 -370 395 -540 540 -38 33 -72 63 -75 66 -17 19 -255 200 -360
274 -418 293 -848 511 -1340 680 -161 55 -401 123 -530 150 -8 1 -33 8 -55 13
-22 6 -56 13 -75 16 -19 3 -48 8 -65 11 -102 19 -195 35 -230 40 -22 2 -71 9
-110 14 -38 6 -106 13 -150 16 -44 4 -96 9 -115 11 -39 5 -637 14 -642 9z"/>
</g>
</svg>
